<?xml version="1.0" encoding="UTF-8"?>
<svg xmlns="http://www.w3.org/2000/svg" xmlns:xlink="http://www.w3.org/1999/xlink" viewBox="0 0 299.78 172.08">
  <defs>
    <style>
      .cls-1 {
        fill: url(#linear-gradient-2);
      }

      .cls-2 {
        clip-path: url(#clippath-2);
      }

      .cls-2, .cls-3, .cls-4, .cls-5, .cls-6 {
        fill: none;
      }

      .cls-7 {
        fill: #fff;
      }

      .cls-8 {
        fill: url(#linear-gradient-6);
      }

      .cls-9 {
        isolation: isolate;
      }

      .cls-10 {
        clip-path: url(#clippath-4);
      }

      .cls-11 {
        fill: url(#linear-gradient-10);
      }

      .cls-12 {
        fill: url(#linear-gradient-5);
      }

      .cls-3 {
        clip-path: url(#clippath-3);
      }

      .cls-13 {
        fill: url(#linear-gradient-7);
      }

      .cls-5 {
        clip-path: url(#clippath);
      }

      .cls-14 {
        fill: url(#linear-gradient-9);
      }

      .cls-15 {
        fill: url(#linear-gradient-3);
      }

      .cls-6 {
        clip-path: url(#clippath-1);
      }

      .cls-16 {
        fill: url(#linear-gradient);
      }

      .cls-17 {
        fill: #231f20;
      }

      .cls-18 {
        fill: url(#linear-gradient-4);
      }

      .cls-19 {
        mix-blend-mode: multiply;
      }

      .cls-20 {
        fill: url(#linear-gradient-8);
      }
    </style>
    <linearGradient id="linear-gradient" x1="12.74" y1="79.19" x2="168.34" y2="79.19" gradientUnits="userSpaceOnUse">
      <stop offset="0" stop-color="#fbb040"/>
      <stop offset="1" stop-color="#ed1d32"/>
      <stop offset="1" stop-color="#000"/>
    </linearGradient>
    <linearGradient id="linear-gradient-2" x1="142.41" y1="79.19" x2="274.7" y2="79.19" gradientUnits="userSpaceOnUse">
      <stop offset="0" stop-color="#27aae1"/>
      <stop offset="1" stop-color="#2b3990"/>
      <stop offset="1" stop-color="#ed1d32"/>
    </linearGradient>
    <linearGradient id="linear-gradient-3" x1="109.23" y1="144.41" x2="26.59" y2="61.78" gradientTransform="translate(1.91 -9.7)" gradientUnits="userSpaceOnUse">
      <stop offset="0" stop-color="#fff"/>
      <stop offset="1" stop-color="#58595b"/>
    </linearGradient>
    <linearGradient id="linear-gradient-4" x1="136.65" y1="141.59" x2="24.67" y2="29.61" xlink:href="#linear-gradient-3"/>
    <linearGradient id="linear-gradient-5" x1="136.65" y1="141.59" x2="24.67" y2="29.61" xlink:href="#linear-gradient-3"/>
    <linearGradient id="linear-gradient-6" x1="168.55" y1="143.25" x2="85.91" y2="60.61" xlink:href="#linear-gradient-3"/>
    <linearGradient id="linear-gradient-7" x1="224.57" y1="138.23" x2="154.02" y2="67.69" gradientTransform="translate(1.91 -9.7)" gradientUnits="userSpaceOnUse">
      <stop offset="0" stop-color="#fff"/>
      <stop offset=".99" stop-color="#414042"/>
    </linearGradient>
    <linearGradient id="linear-gradient-8" x1="254.9" y1="110.8" x2="184.35" y2="40.25" xlink:href="#linear-gradient-3"/>
    <linearGradient id="linear-gradient-9" x1="251.16" y1="152.52" x2="180.61" y2="81.97" gradientUnits="userSpaceOnUse">
      <stop offset="0" stop-color="#fff"/>
      <stop offset="1" stop-color="#939598"/>
    </linearGradient>
    <linearGradient id="linear-gradient-10" x1="274.48" y1="131.65" x2="203.93" y2="61.11" gradientTransform="translate(1.91 -9.7)" gradientUnits="userSpaceOnUse">
      <stop offset="0" stop-color="#fff"/>
      <stop offset="1" stop-color="#808285"/>
    </linearGradient>
    <clipPath id="clippath">
      <path class="cls-4" d="m7.68,106.73c0,.67-.54,1.21-1.21,1.21h0c-.67,0-1.21-.54-1.21-1.21v-54.32c0-.67.54-1.21,1.21-1.21h0c.67,0,1.21.54,1.21,1.21v54.32Z"/>
    </clipPath>
    <clipPath id="clippath-1">
      <path class="cls-5" d="m286.88,94.12c0,2.33-1.89,4.22-4.22,4.22h0c-2.33,0-4.22-1.89-4.22-4.22v-29.09c0-2.33,1.89-4.22,4.22-4.22h0c2.33,0,4.22,1.89,4.22,4.22v29.09Z"/>
    </clipPath>
    <clipPath id="clippath-2">
      <path class="cls-6" d="m62.1,3c0,1.44-1.5,2.62-3.34,2.62H20.68c-1.85,0-3.34-1.17-3.34-2.62h0c0-1.44,1.5-2.61,3.34-2.61h38.07c1.85,0,3.34,1.17,3.34,2.61h0Z"/>
    </clipPath>
    <clipPath id="clippath-3">
      <path class="cls-2" d="m105.04,3c0,1.44-1.16,2.62-2.59,2.62h-29.46c-1.43,0-2.59-1.17-2.59-2.62h0c0-1.44,1.16-2.61,2.59-2.61h29.46c1.43,0,2.59,1.17,2.59,2.61h0Z"/>
    </clipPath>
    <clipPath id="clippath-4">
      <path class="cls-3" d="m74.38,155.38c0,1.44-1.5,2.62-3.34,2.62h-38.07c-1.85,0-3.34-1.17-3.34-2.62h0c0-1.44,1.5-2.61,3.34-2.61h38.07c1.85,0,3.34,1.17,3.34,2.61h0Z"/>
    </clipPath>
  </defs>
  <g class="cls-9">
    <g id="Layer_2" data-name="Layer 2">
      <g id="Layer_1-2" data-name="Layer 1">
        <g>
          <g>
            <rect class="cls-17" y="3.38" width="291.44" height="151.61" rx="12" ry="12"/>
            <g>
              <path class="cls-7" d="m7.68,106.35c0,.67-.54,1.21-1.21,1.21h0c-.67,0-1.21-.54-1.21-1.21v-54.32c0-.67.54-1.21,1.21-1.21h0c.67,0,1.21.54,1.21,1.21v54.32Z"/>
              <path class="cls-7" d="m286.88,93.73c0,2.33-1.89,4.22-4.22,4.22h0c-2.33,0-4.22-1.89-4.22-4.22v-29.09c0-2.33,1.89-4.22,4.22-4.22h0c2.33,0,4.22,1.89,4.22,4.22v29.09Z"/>
              <path class="cls-17" d="m62.1,2.61c0,1.44-1.5,2.62-3.34,2.62H20.68c-1.85,0-3.34-1.17-3.34-2.62h0c0-1.44,1.5-2.61,3.34-2.61h38.07c1.85,0,3.34,1.17,3.34,2.61h0Z"/>
              <path class="cls-17" d="m105.04,2.61c0,1.44-1.16,2.62-2.59,2.62h-29.46c-1.43,0-2.59-1.17-2.59-2.62h0c0-1.44,1.16-2.61,2.59-2.61h29.46c1.43,0,2.59,1.17,2.59,2.61h0Z"/>
              <path class="cls-17" d="m74.38,154.99c0,1.44-1.5,2.62-3.34,2.62h-38.07c-1.85,0-3.34-1.17-3.34-2.62h0c0-1.44,1.5-2.61,3.34-2.61h38.07c1.85,0,3.34,1.17,3.34,2.61h0Z"/>
            </g>
          </g>
          <path class="cls-16" d="m162.61,148.36H24.74c-6.63,0-12-5.37-12-12V22.01c0-6.63,5.37-12,12-12h139.46s-2.35,0-7.93,6.76c-5.57,6.76-16.98,20.48-16.04,44.68.94,24.2,18.09,45.81,21.15,50.98,3.05,5.17,5.95,10.57,6.73,15.95,1.59,11.15-5.5,19.98-5.5,19.98Z"/>
          <path class="cls-1" d="m274.7,22.01v114.35c0,6.63-5.37,12-12,12h-97.49s4.81-6.42,4.82-18.34c0-4.21-3.69-12.83-8.18-19.89-7.4-11.64-17.66-26.22-19.27-48.45-2.58-35.71,25.38-51.67,25.38-51.67h94.74c6.63,0,12,5.37,12,12Z"/>
          <path class="cls-7" d="m170.03,130.02c0,11.92-4.82,18.34-4.82,18.34h-2.6s7.09-8.83,5.5-19.98c-.78-5.38-3.68-10.78-6.73-15.95-3.06-5.17-20.21-26.78-21.15-50.98-.94-24.2,10.47-37.92,16.04-44.68,5.58-6.76,7.93-6.76,7.93-6.76h3.76s-27.96,15.96-25.38,51.67c1.61,22.23,11.87,36.81,19.27,48.45,4.49,7.06,8.18,15.68,8.18,19.89Z"/>
          <path class="cls-7" d="m170.03,130.02c0,11.92-4.82,18.34-4.82,18.34h-2.6s7.09-8.83,5.5-19.98c-.78-5.38-3.68-10.78-6.73-15.95-3.06-5.17-20.21-26.78-21.15-50.98-.94-24.2,10.47-37.92,16.04-44.68,5.58-6.76,7.93-6.76,7.93-6.76h3.76s-27.96,15.96-25.38,51.67c1.61,22.23,11.87,36.81,19.27,48.45,4.49,7.06,8.18,15.68,8.18,19.89Z"/>
          <g>
            <g class="cls-19">
              <polygon class="cls-15" points="125.15 123.22 125.12 123.22 124.15 122.22 124.12 122.22 123.15 121.22 123.12 121.22 122.15 120.22 122.12 120.22 121.15 119.22 121.12 119.22 120.15 118.22 120.12 118.22 119.15 117.22 119.12 117.22 118.15 116.22 118.12 116.22 117.15 115.22 117.12 115.22 116.15 114.22 116.12 114.22 115.15 113.22 115.12 113.22 114.15 112.22 114.12 112.22 113.15 111.22 113.12 111.22 112.15 110.22 112.12 110.22 111.15 109.22 111.12 109.22 110.15 108.22 110.12 108.22 109.15 107.22 109.12 107.22 108.15 106.22 108.12 106.22 107.15 105.22 107.12 105.22 106.15 104.22 106.12 104.22 105.15 103.22 105.12 103.22 104.15 102.22 104.12 102.22 103.15 101.22 103.12 101.22 102.15 100.22 102.12 100.22 101.15 99.22 101.12 99.22 100.15 98.22 100.12 98.22 99.15 97.22 99.12 97.22 98.15 96.22 98.12 96.22 97.15 95.22 97.12 95.22 96.15 94.22 96.12 94.22 95.15 93.22 95.12 93.22 94.15 92.22 94.12 92.22 93.15 91.22 93.12 91.22 92.15 90.22 92.12 90.22 91.15 89.22 91.12 89.22 90.15 88.22 90.12 88.22 89.15 87.22 89.12 87.22 88.15 86.22 88.12 86.22 87.15 85.22 87.12 85.22 86.15 84.22 86.12 84.22 85.15 83.22 85.12 83.22 84.15 82.22 84.12 82.22 83.15 81.22 83.12 81.22 82.15 80.22 82.12 80.22 81.15 79.22 81.12 79.22 80.15 78.22 80.12 78.22 79.15 77.22 79.12 77.22 78.15 76.22 78.12 76.22 77.15 75.22 77.12 75.22 76.15 74.22 76.12 74.22 75.15 73.22 75.12 73.22 74.15 72.22 74.12 72.22 73.15 71.22 73.12 71.22 72.15 70.22 72.12 70.22 71.15 69.22 71.12 69.22 70.15 68.22 70.12 68.22 69.15 67.22 69.12 67.22 68.15 66.22 43.08 66.22 43.08 92.15 44.08 92.15 44.08 93.15 45.08 93.15 45.08 94.15 46.08 94.15 46.08 95.15 47.08 95.15 47.08 96.15 48.08 96.15 48.08 97.15 49.08 97.15 49.08 98.15 50.08 98.15 50.08 99.15 51.08 99.15 51.08 100.15 52.08 100.15 52.08 101.15 53.08 101.15 53.08 102.15 54.08 102.15 54.08 103.15 55.08 103.15 55.08 104.15 56.08 104.15 56.08 105.15 57.08 105.15 57.08 106.15 58.08 106.15 58.08 107.15 59.08 107.15 59.08 108.15 60.08 108.15 60.08 109.15 61.08 109.15 61.08 110.15 62.08 110.15 62.08 111.15 63.08 111.15 63.08 112.15 64.08 112.15 64.08 113.15 65.08 113.15 65.08 114.15 66.08 114.15 66.08 115.15 67.08 115.15 67.08 116.15 68.08 116.15 68.08 117.15 69.08 117.15 69.08 118.15 70.08 118.15 70.08 119.15 71.08 119.15 71.08 120.15 72.08 120.15 72.08 121.15 73.08 121.15 73.08 122.15 74.08 122.15 74.08 123.15 75.08 123.15 75.08 124.15 76.08 124.15 76.08 125.15 77.08 125.15 77.08 126.15 78.08 126.15 78.08 127.15 79.08 127.15 79.08 128.15 80.08 128.15 80.08 129.15 81.08 129.15 81.08 130.15 82.08 130.15 82.08 131.15 83.08 131.15 83.08 132.15 84.08 132.15 84.08 133.15 85.08 133.15 85.08 134.15 86.08 134.15 86.08 135.15 87.08 135.15 87.08 136.15 88.08 136.15 88.08 137.15 89.08 137.15 89.08 138.15 90.08 138.15 90.08 139.15 91.08 139.15 91.08 140.15 92.08 140.15 92.08 141.15 93.08 141.15 93.08 142.15 94.08 142.15 94.08 143.15 95.08 143.15 95.08 144.15 96.08 144.15 96.08 145.15 97.08 145.15 97.08 146.15 98.08 146.15 98.08 147.15 99.08 147.15 99.08 148.15 100.08 148.15 100.08 149.15 125.15 149.15 138.11 136.48 125.15 123.22"/>
            </g>
            <polygon class="cls-7" points="43.08 92.15 68.15 92.15 81.11 79.48 68.15 66.22 43.08 66.22 43.08 92.15"/>
          </g>
          <g>
            <g class="cls-19">
              <g>
                <polygon class="cls-18" points="154.83 94.17 154.83 93.17 153.83 93.17 153.83 92.17 152.83 92.17 152.83 91.17 151.83 91.17 151.83 90.17 150.83 90.17 150.83 89.17 149.83 89.17 149.83 88.17 148.83 88.17 148.83 87.17 147.83 87.17 147.83 86.17 146.83 86.17 146.83 85.17 145.83 85.17 145.83 84.17 144.83 84.17 144.83 83.17 143.83 83.17 143.83 82.17 142.83 82.17 142.83 81.17 141.83 81.17 141.83 80.17 140.83 80.17 140.83 79.17 139.83 79.17 139.83 78.17 138.83 78.17 138.83 77.17 137.83 77.17 137.83 76.17 136.83 76.17 136.83 75.17 135.83 75.17 135.83 74.17 134.83 74.17 134.83 73.17 133.83 73.17 133.83 72.17 132.83 72.17 132.83 71.17 131.83 71.17 131.83 70.17 130.83 70.17 130.83 69.17 129.83 69.17 129.83 68.17 128.83 68.17 128.83 67.17 127.83 67.17 127.83 66.17 126.83 66.17 126.83 65.17 125.83 65.17 125.83 64.17 124.83 64.17 124.83 63.17 123.83 63.17 123.83 62.17 122.83 62.17 122.83 61.17 121.83 61.17 121.83 60.17 120.83 60.17 120.83 59.17 119.83 59.17 119.83 58.17 118.83 58.17 118.83 57.17 117.83 57.17 117.83 56.17 116.83 56.17 116.83 55.17 115.83 55.17 115.83 54.17 114.83 54.17 114.83 53.17 113.83 53.17 113.83 52.17 112.83 52.17 112.83 51.17 111.83 51.17 111.83 50.17 110.83 50.17 110.83 49.17 109.83 49.17 109.83 48.17 108.83 48.17 108.83 47.17 107.83 47.17 107.83 46.17 106.83 46.17 106.83 45.17 105.83 45.17 105.83 44.17 104.83 44.17 104.83 43.17 103.83 43.17 103.83 42.17 102.83 42.17 102.83 41.17 101.83 41.17 101.83 40.17 100.83 40.17 100.83 39.17 99.83 39.17 99.83 38.17 98.83 38.17 98.83 37.17 72.9 37.17 72.9 62.23 85.57 75.19 85.59 75.18 86.57 76.19 86.59 76.18 87.57 77.19 87.59 77.18 88.57 78.19 88.59 78.18 89.57 79.19 89.59 79.18 90.57 80.19 90.59 80.18 91.57 81.19 91.59 81.18 92.57 82.19 92.59 82.18 93.57 83.19 93.59 83.18 94.57 84.19 94.59 84.18 95.57 85.19 95.59 85.18 96.57 86.19 96.59 86.18 97.57 87.19 97.59 87.18 98.57 88.19 98.59 88.18 99.57 89.19 99.59 89.18 100.57 90.19 100.59 90.18 101.57 91.19 101.59 91.18 102.57 92.19 102.59 92.18 103.57 93.19 103.59 93.18 104.57 94.19 104.59 94.18 105.57 95.19 105.59 95.18 106.57 96.19 106.59 96.18 107.57 97.19 107.59 97.18 108.57 98.19 108.59 98.18 109.57 99.19 109.59 99.18 110.57 100.19 110.59 100.18 111.57 101.19 111.59 101.18 112.57 102.19 112.59 102.18 113.57 103.19 113.59 103.18 114.57 104.19 114.59 104.18 115.57 105.19 115.59 105.18 116.57 106.19 116.59 106.18 117.57 107.19 117.59 107.18 118.57 108.19 118.59 108.18 119.57 109.19 119.59 109.18 120.57 110.19 120.59 110.18 121.57 111.19 121.59 111.18 122.57 112.19 122.59 112.18 123.57 113.19 123.59 113.18 124.57 114.19 124.59 114.18 125.57 115.19 125.59 115.18 126.57 116.19 126.59 116.18 127.57 117.19 127.59 117.18 128.57 118.19 128.59 118.18 129.57 119.19 129.59 119.18 130.57 120.19 130.59 120.18 131.57 121.19 131.59 121.18 132.57 122.19 132.59 122.18 133.57 123.19 133.59 123.18 134.57 124.19 134.59 124.18 135.57 125.19 135.59 125.18 136.57 126.19 136.59 126.18 137.57 127.19 137.59 127.18 138.57 128.19 138.59 128.18 139.57 129.19 139.59 129.18 140.57 130.19 140.59 130.18 141.57 131.19 141.59 131.18 142.57 132.19 155.83 119.23 155.83 94.17 154.83 94.17"/>
                <polygon class="cls-12" points="143.14 140.19 142.15 139.18 142.14 139.19 141.15 138.18 141.14 138.19 140.15 137.18 140.14 137.19 139.15 136.18 139.14 136.19 138.15 135.18 138.14 135.19 137.15 134.18 137.14 134.19 136.15 133.18 136.14 133.19 135.15 132.18 135.14 132.19 134.15 131.18 134.14 131.19 133.15 130.18 133.14 130.19 132.15 129.18 132.14 129.19 131.15 128.18 131.14 128.19 130.15 127.18 130.14 127.19 129.15 126.18 129.14 126.19 128.15 125.18 128.14 125.19 127.15 124.18 127.14 124.19 126.15 123.18 126.14 123.19 125.15 122.18 125.14 122.19 124.15 121.18 124.14 121.19 123.15 120.18 123.14 120.19 122.15 119.18 122.14 119.19 121.15 118.18 121.14 118.19 120.15 117.18 120.14 117.19 119.15 116.18 119.14 116.19 118.15 115.18 118.14 115.19 117.15 114.18 117.14 114.19 116.15 113.18 116.14 113.19 115.15 112.18 115.14 112.19 114.15 111.18 114.14 111.19 113.15 110.18 113.14 110.19 112.15 109.18 112.14 109.19 111.15 108.18 111.14 108.19 110.15 107.18 110.14 107.19 109.15 106.18 109.14 106.19 108.15 105.18 108.14 105.19 107.15 104.18 107.14 104.19 106.15 103.18 106.14 103.19 105.15 102.18 105.14 102.19 104.15 101.18 104.14 101.19 103.15 100.18 103.14 100.19 102.15 99.18 102.14 99.19 101.15 98.18 101.14 98.19 100.15 97.18 100.14 97.19 99.15 96.18 99.14 96.19 98.15 95.18 98.14 95.19 97.15 94.18 97.14 94.19 96.15 93.18 96.14 93.19 95.15 92.18 95.14 92.19 94.15 91.18 94.14 91.19 93.15 90.18 93.14 90.19 92.15 89.18 92.14 89.19 91.15 88.18 91.14 88.19 90.15 87.18 90.14 87.19 89.15 86.18 89.14 86.19 88.15 85.18 88.14 85.19 87.15 84.18 87.14 84.19 86.15 83.18 72.9 96.15 72.9 121.21 73.9 121.21 73.9 122.21 74.9 122.21 74.9 123.21 75.9 123.21 75.9 124.21 76.9 124.21 76.9 125.21 77.9 125.21 77.9 126.21 78.9 126.21 78.9 127.21 79.9 127.21 79.9 128.21 80.9 128.21 80.9 129.21 81.9 129.21 81.9 130.21 82.9 130.21 82.9 131.21 83.9 131.21 83.9 132.21 84.9 132.21 84.9 133.21 85.9 133.21 85.9 134.21 86.9 134.21 86.9 135.21 87.9 135.21 87.9 136.21 88.9 136.21 88.9 137.21 89.9 137.21 89.9 138.21 90.9 138.21 90.9 139.21 91.9 139.21 91.9 140.21 92.9 140.21 92.9 141.21 93.9 141.21 93.9 142.21 94.9 142.21 94.9 143.21 95.9 143.21 95.9 144.21 96.9 144.21 96.9 145.21 97.9 145.21 97.9 146.21 98.9 146.21 98.9 147.21 99.9 147.21 99.9 148.21 100.9 148.21 100.9 149.21 101.9 149.21 101.9 150.21 102.9 150.21 102.9 151.21 103.9 151.21 103.9 152.21 104.9 152.21 104.9 153.21 105.9 153.21 105.9 154.21 106.9 154.21 106.9 155.21 107.9 155.21 107.9 156.21 108.9 156.21 108.9 157.21 109.9 157.21 109.9 158.21 110.9 158.21 110.9 159.21 111.9 159.21 111.9 160.21 112.9 160.21 112.9 161.21 113.9 161.21 113.9 162.21 114.9 162.21 114.9 163.21 115.9 163.21 115.9 164.21 116.9 164.21 116.9 165.21 117.9 165.21 117.9 166.21 118.9 166.21 118.9 167.21 119.9 167.21 119.9 168.21 120.9 168.21 120.9 169.21 121.9 169.21 121.9 170.21 122.9 170.21 122.9 171.21 123.9 171.21 123.9 172.21 124.9 172.21 124.9 173.21 125.9 173.21 125.9 174.21 126.9 174.21 126.9 175.21 127.9 175.21 127.9 176.21 128.9 176.21 128.9 177.21 129.9 177.21 129.9 178.21 155.83 178.21 155.83 153.15 143.15 140.18 143.14 140.19"/>
              </g>
            </g>
            <g>
              <polygon class="cls-7" points="72.9 37.17 72.9 62.23 85.57 75.19 98.83 62.23 98.83 37.17 72.9 37.17"/>
              <polygon class="cls-7" points="98.83 121.21 98.83 96.15 86.15 83.18 72.9 96.15 72.9 121.21 98.83 121.21"/>
            </g>
            <g>
              <polygon class="cls-7" points="72.9 37.17 72.9 62.23 85.57 75.19 98.83 62.23 98.83 37.17 72.9 37.17"/>
              <polygon class="cls-7" points="98.83 121.21 98.83 96.15 86.15 83.18 72.9 96.15 72.9 121.21 98.83 121.21"/>
            </g>
          </g>
          <g>
            <g class="cls-19">
              <polygon class="cls-8" points="184.64 123.22 184.64 122.22 183.64 122.22 183.64 121.22 182.64 121.22 182.64 120.22 181.64 120.22 181.64 119.22 180.64 119.22 180.64 118.22 179.64 118.22 179.64 117.22 178.64 117.22 178.64 116.22 177.64 116.22 177.64 115.22 176.64 115.22 176.64 114.22 175.64 114.22 175.64 113.22 174.64 113.22 174.64 112.22 173.64 112.22 173.64 111.22 172.64 111.22 172.64 110.22 171.64 110.22 171.64 109.22 170.64 109.22 170.64 108.22 169.64 108.22 169.64 107.22 168.64 107.22 168.64 106.22 167.64 106.22 167.64 105.22 166.64 105.22 166.64 104.22 165.64 104.22 165.64 103.22 164.64 103.22 164.64 102.22 163.64 102.22 163.64 101.22 162.64 101.22 162.64 100.22 161.64 100.22 161.64 99.22 160.64 99.22 160.64 98.22 159.64 98.22 159.64 97.22 158.64 97.22 158.64 96.22 157.64 96.22 157.64 95.22 156.64 95.22 156.64 94.22 155.64 94.22 155.64 93.22 154.64 93.22 154.64 92.22 153.64 92.22 153.64 91.22 152.64 91.22 152.64 90.22 151.64 90.22 151.64 89.22 150.64 89.22 150.64 88.22 149.64 88.22 149.64 87.22 148.64 87.22 148.64 86.22 147.64 86.22 147.64 85.22 146.64 85.22 146.64 84.22 145.64 84.22 145.64 83.22 144.64 83.22 144.64 82.22 143.64 82.22 143.64 81.22 142.64 81.22 142.64 80.22 141.64 80.22 141.64 79.22 140.64 79.22 140.64 78.22 139.64 78.22 139.64 77.22 138.64 77.22 138.64 76.22 137.64 76.22 137.64 75.22 136.64 75.22 136.64 74.22 135.64 74.22 135.64 73.22 134.64 73.22 134.64 72.22 133.64 72.22 133.64 71.22 132.64 71.22 132.64 70.22 131.64 70.22 131.64 69.22 130.64 69.22 130.64 68.22 129.64 68.22 129.64 67.22 128.64 67.22 128.64 66.22 103.58 66.22 90.62 78.9 103.58 92.15 103.6 92.15 104.58 93.15 104.6 93.15 105.58 94.15 105.6 94.15 106.58 95.15 106.6 95.15 107.58 96.15 107.6 96.15 108.58 97.15 108.6 97.15 109.58 98.15 109.6 98.15 110.58 99.15 110.6 99.15 111.58 100.15 111.6 100.15 112.58 101.15 112.6 101.15 113.58 102.15 113.6 102.15 114.58 103.15 114.6 103.15 115.58 104.15 115.6 104.15 116.58 105.15 116.6 105.15 117.58 106.15 117.6 106.15 118.58 107.15 118.6 107.15 119.58 108.15 119.6 108.15 120.58 109.15 120.6 109.15 121.58 110.15 121.6 110.15 122.58 111.15 122.6 111.15 123.58 112.15 123.6 112.15 124.58 113.15 124.6 113.15 125.58 114.15 125.6 114.15 126.58 115.15 126.6 115.15 127.58 116.15 127.6 116.15 128.58 117.15 128.6 117.15 129.58 118.15 129.6 118.15 130.58 119.15 130.6 119.15 131.58 120.15 131.6 120.15 132.58 121.15 132.6 121.15 133.58 122.15 133.6 122.15 134.58 123.15 134.6 123.15 135.58 124.15 135.6 124.15 136.58 125.15 136.6 125.15 137.58 126.15 137.6 126.15 138.58 127.15 138.6 127.15 139.58 128.15 139.6 128.15 140.58 129.15 140.6 129.15 141.58 130.15 141.6 130.15 142.58 131.15 142.6 131.15 143.58 132.15 143.6 132.15 144.58 133.15 144.6 133.15 145.58 134.15 145.6 134.15 146.58 135.15 146.6 135.15 147.58 136.15 147.6 136.15 148.58 137.15 148.6 137.15 149.58 138.15 149.6 138.15 150.58 139.15 150.6 139.15 151.58 140.15 151.6 140.15 152.58 141.15 152.6 141.15 153.58 142.15 153.6 142.15 154.58 143.15 154.6 143.15 155.58 144.15 155.6 144.15 156.58 145.15 156.6 145.15 157.58 146.15 157.6 146.15 158.58 147.15 158.6 147.15 159.58 148.15 159.6 148.15 160.58 149.15 185.64 149.15 185.64 123.22 184.64 123.22"/>
            </g>
            <polygon class="cls-7" points="128.64 66.22 103.58 66.22 90.62 78.9 103.58 92.15 128.64 92.15 128.64 66.22"/>
          </g>
          <g>
            <g class="cls-19">
              <path class="cls-13" d="m236.36,117.96c-.6-.73-1.27-1.4-2-2-.6-.73-1.27-1.4-2-2-.6-.73-1.27-1.4-2-2-.6-.73-1.27-1.4-2-2-.6-.73-1.27-1.4-2-2-.6-.73-1.27-1.4-2-2-.6-.73-1.27-1.4-2-2-.6-.73-1.27-1.4-2-2-.6-.73-1.27-1.4-2-2-.6-.73-1.27-1.4-2-2-.6-.73-1.27-1.4-2-2-.6-.73-1.27-1.4-2-2-.6-.73-1.27-1.4-2-2-.6-.73-1.27-1.4-2-2-.6-.73-1.27-1.4-2-2-.6-.73-1.27-1.4-2-2-.6-.73-1.27-1.4-2-2-.6-.73-1.27-1.4-2-2-.6-.73-1.27-1.4-2-2-.6-.73-1.27-1.4-2-2-.6-.73-1.27-1.4-2-2-.6-.73-1.27-1.4-2-2-.6-.73-1.27-1.4-2-2-.6-.73-1.27-1.4-2-2-2.66-3.24-6.7-5.3-11.22-5.3-8.02,0-14.53,6.5-14.53,14.53,0,4.52,2.07,8.56,5.3,11.22.6.73,1.27,1.4,2,2,.6.73,1.27,1.4,2,2,.6.73,1.27,1.4,2,2,.6.73,1.27,1.4,2,2,.6.73,1.27,1.4,2,2,.6.73,1.27,1.4,2,2,.6.73,1.27,1.4,2,2,.6.73,1.27,1.4,2,2,.6.73,1.27,1.4,2,2,.6.73,1.27,1.4,2,2,.6.73,1.27,1.4,2,2,.6.73,1.27,1.4,2,2,.6.73,1.27,1.4,2,2,.6.73,1.27,1.4,2,2,.6.73,1.27,1.4,2,2,.6.73,1.27,1.4,2,2,.6.73,1.27,1.4,2,2,.6.73,1.27,1.4,2,2,.6.73,1.27,1.4,2,2,.6.73,1.27,1.4,2,2,.6.73,1.27,1.4,2,2,.6.73,1.27,1.4,2,2,.6.73,1.27,1.4,2,2,.6.73,1.27,1.4,2,2,2.67,3.24,6.7,5.3,11.22,5.3,8.02,0,14.53-6.5,14.53-14.53,0-4.52-2.07-8.56-5.3-11.22Z"/>
            </g>
            <path class="cls-7" d="m191.67,79.19c0,8.02-6.51,14.53-14.53,14.53s-14.53-6.5-14.53-14.53,6.5-14.53,14.53-14.53,14.53,6.5,14.53,14.53Z"/>
          </g>
          <g>
            <g class="cls-19">
              <path class="cls-20" d="m266.69,90.53c-.6-.73-1.27-1.4-2-2-.6-.73-1.27-1.4-2-2-.6-.73-1.27-1.4-2-2-.6-.73-1.27-1.4-2-2-.6-.73-1.27-1.4-2-2-.6-.73-1.27-1.4-2-2-.6-.73-1.27-1.4-2-2-.6-.73-1.27-1.4-2-2-.6-.73-1.27-1.4-2-2-.6-.73-1.27-1.4-2-2-.6-.73-1.27-1.4-2-2-.6-.73-1.27-1.4-2-2-.6-.73-1.27-1.4-2-2-.6-.73-1.27-1.4-2-2-.6-.73-1.27-1.4-2-2-.6-.73-1.27-1.4-2-2-.6-.73-1.27-1.4-2-2-.6-.73-1.27-1.4-2-2-.6-.73-1.27-1.4-2-2-.6-.73-1.27-1.4-2-2-.6-.73-1.27-1.4-2-2-.6-.73-1.27-1.4-2-2-.6-.73-1.27-1.4-2-2-.6-.73-1.27-1.4-2-2-2.66-3.24-6.7-5.3-11.23-5.3-8.02,0-14.53,6.5-14.53,14.53,0,4.52,2.07,8.56,5.3,11.22.6.73,1.27,1.4,2,2,.6.73,1.27,1.4,2,2,.6.73,1.27,1.4,2,2,.6.73,1.27,1.4,2,2,.6.73,1.27,1.4,2,2,.6.73,1.27,1.4,2,2,.6.73,1.27,1.4,2,2,.6.73,1.27,1.4,2,2,.6.73,1.27,1.4,2,2,.6.73,1.27,1.4,2,2,.6.73,1.27,1.4,2,2,.6.73,1.27,1.4,2,2,.6.73,1.27,1.4,2,2,.6.73,1.27,1.4,2,2,.6.73,1.27,1.4,2,2,.6.73,1.27,1.4,2,2,.6.73,1.27,1.4,2,2,.6.73,1.27,1.4,2,2,.6.73,1.27,1.4,2,2,.6.73,1.27,1.4,2,2,.6.73,1.27,1.4,2,2,.6.73,1.27,1.4,2,2,.6.73,1.27,1.4,2,2,.6.73,1.27,1.4,2,2,2.66,3.24,6.7,5.3,11.22,5.3,8.02,0,14.53-6.5,14.53-14.53,0-4.52-2.07-8.56-5.3-11.22Z"/>
            </g>
            <path class="cls-7" d="m222,51.76c0,8.02-6.51,14.53-14.53,14.53s-14.53-6.5-14.53-14.53,6.51-14.53,14.53-14.53,14.53,6.5,14.53,14.53Z"/>
          </g>
          <g>
            <g class="cls-19">
              <path class="cls-14" d="m265.42,146.33c-.6-.73-1.27-1.4-2-2-.6-.73-1.27-1.4-2-2-.6-.73-1.27-1.4-2-2-.6-.73-1.27-1.4-2-2-.6-.73-1.27-1.4-2-2-.6-.73-1.27-1.4-2-2-.6-.73-1.27-1.4-2-2-.6-.73-1.27-1.4-2-2-.6-.73-1.27-1.4-2-2-.6-.73-1.27-1.4-2-2-.6-.73-1.27-1.4-2-2-.6-.73-1.27-1.4-2-2-.6-.73-1.27-1.4-2-2-.6-.73-1.27-1.4-2-2-.6-.73-1.27-1.4-2-2-.6-.73-1.27-1.4-2-2-.6-.73-1.27-1.4-2-2-.6-.73-1.27-1.4-2-2-.6-.73-1.27-1.4-2-2-.6-.73-1.27-1.4-2-2-.6-.73-1.27-1.4-2-2-.6-.73-1.27-1.4-2-2-.6-.73-1.27-1.4-2-2-.6-.73-1.27-1.4-2-2-2.67-3.24-6.7-5.31-11.23-5.31-8.02,0-14.53,6.5-14.53,14.53,0,4.52,2.07,8.56,5.3,11.22.6.73,1.27,1.4,2,2,.6.73,1.27,1.4,2,2,.6.73,1.27,1.4,2,2,.6.73,1.27,1.4,2,2,.6.73,1.27,1.4,2,2,.6.73,1.27,1.4,2,2,.6.73,1.27,1.4,2,2,.6.73,1.27,1.4,2,2,.6.73,1.27,1.4,2,2,.6.73,1.27,1.4,2,2,.6.73,1.27,1.4,2,2,.6.73,1.27,1.4,2,2,.6.73,1.27,1.4,2,2,.6.73,1.27,1.4,2,2,.6.73,1.27,1.4,2,2,.6.73,1.27,1.4,2,2,.6.73,1.27,1.4,2,2,.6.73,1.27,1.4,2,2,.6.73,1.27,1.4,2,2,.6.73,1.27,1.4,2,2,.6.73,1.27,1.4,2,2,.6.73,1.27,1.4,2,2,.6.73,1.27,1.4,2,2,.6.73,1.27,1.4,2,2,2.66,3.24,6.7,5.3,11.22,5.3,8.02,0,14.53-6.51,14.53-14.53,0-4.52-2.07-8.56-5.3-11.22Z"/>
            </g>
            <circle class="cls-7" cx="206.19" cy="107.56" r="14.53" transform="translate(96.9 312.83) rotate(-89.51)"/>
          </g>
          <g>
            <g class="cls-19">
              <path class="cls-11" d="m294.48,119.59c-.6-.73-1.27-1.4-2-2-.6-.73-1.27-1.4-2-2-.6-.73-1.27-1.4-2-2-.6-.73-1.27-1.4-2-2-.6-.73-1.27-1.4-2-2-.6-.73-1.27-1.4-2-2-.6-.73-1.27-1.4-2-2-.6-.73-1.27-1.4-2-2-.6-.73-1.27-1.4-2-2-.6-.73-1.27-1.4-2-2-.6-.73-1.27-1.4-2-2-.6-.73-1.27-1.4-2-2-.6-.73-1.27-1.4-2-2-.6-.73-1.27-1.4-2-2-.6-.73-1.27-1.4-2-2-.6-.73-1.27-1.4-2-2-.6-.73-1.27-1.4-2-2-.6-.73-1.27-1.4-2-2-.6-.73-1.27-1.4-2-2-.6-.73-1.27-1.4-2-2-.6-.73-1.27-1.4-2-2-.6-.73-1.27-1.4-2-2-.6-.73-1.27-1.4-2-2-.6-.73-1.27-1.4-2-2-2.66-3.24-6.7-5.3-11.22-5.3-8.02,0-14.53,6.5-14.53,14.53,0,4.52,2.07,8.56,5.3,11.22.6.73,1.27,1.4,2,2,.6.73,1.27,1.4,2,2,.6.73,1.27,1.4,2,2,.6.73,1.27,1.4,2,2,.6.73,1.27,1.4,2,2,.6.73,1.27,1.4,2,2,.6.73,1.27,1.4,2,2,.6.73,1.27,1.4,2,2,.6.73,1.27,1.4,2,2,.6.73,1.27,1.4,2,2,.6.73,1.27,1.4,2,2,.6.73,1.27,1.4,2,2,.6.73,1.27,1.4,2,2,.6.73,1.27,1.4,2,2,.6.73,1.27,1.4,2,2,.6.73,1.27,1.4,2,2,.6.73,1.27,1.4,2,2,.6.73,1.27,1.4,2,2,.6.73,1.27,1.4,2,2,.6.73,1.27,1.4,2,2,.6.73,1.27,1.4,2,2,.6.73,1.27,1.4,2,2,.6.73,1.27,1.4,2,2,.6.73,1.27,1.4,2,2,2.66,3.24,6.7,5.3,11.22,5.3,8.02,0,14.53-6.5,14.53-14.53,0-4.52-2.07-8.56-5.3-11.22Z"/>
            </g>
            <path class="cls-7" d="m249.78,80.81c0,8.02-6.51,14.53-14.53,14.53s-14.53-6.5-14.53-14.53,6.5-14.53,14.53-14.53,14.53,6.5,14.53,14.53Z"/>
          </g>
          <g class="cls-10">
            <rect class="cls-17" y="3.77" width="291.44" height="151.61" rx="12" ry="12"/>
          </g>
        </g>
      </g>
    </g>
  </g>
</svg>